<svg xmlns="http://www.w3.org/2000/svg" viewBox="0 0 200 210" fill="none">
  <defs>
    <linearGradient id="onbotBody" x1="0" y1="0" x2="0" y2="1">
      <stop offset="0" stop-color="#34d399"/>
      <stop offset="1" stop-color="#16a34a"/>
    </linearGradient>
  </defs>
  <!-- 발밑 그림자 -->
  <ellipse cx="100" cy="198" rx="46" ry="7" fill="#14532d" opacity="0.18"/>
  <!-- 줄기 + 새싹 잎 -->
  <path d="M100 42 V22" stroke="#16a34a" stroke-width="5" stroke-linecap="round"/>
  <path d="M100 28 q-16 -11 -23 2 q15 9 23 -2Z" fill="#4ade80"/>
  <path d="M100 28 q16 -11 23 2 q-15 9 -23 -2Z" fill="#22c55e"/>
  <!-- 다리 + 발 -->
  <rect x="80" y="150" width="14" height="40" rx="7" fill="#16a34a"/>
  <rect x="106" y="150" width="14" height="40" rx="7" fill="#16a34a"/>
  <ellipse cx="87" cy="190" rx="11" ry="7" fill="#0f5132"/>
  <ellipse cx="113" cy="190" rx="11" ry="7" fill="#0f5132"/>
  <!-- 왼팔(인사) / 오른팔 -->
  <rect x="28" y="84" width="18" height="46" rx="9" fill="#22c55e" transform="rotate(-38 37 107)"/>
  <rect x="152" y="104" width="18" height="46" rx="9" fill="#22c55e" transform="rotate(22 161 127)"/>
  <!-- 몸통 -->
  <rect x="52" y="78" width="96" height="94" rx="42" fill="url(#onbotBody)"/>
  <!-- 배 -->
  <ellipse cx="100" cy="128" rx="29" ry="33" fill="#ffffff" opacity="0.93"/>
  <!-- 배 잎무늬 -->
  <path d="M100 108 V152 M100 120 l-12 -8 M100 120 l12 -8 M100 134 l-12 -8 M100 134 l12 -8" stroke="#bbf7d0" stroke-width="4" stroke-linecap="round"/>
  <!-- 얼굴 -->
  <circle cx="100" cy="74" r="40" fill="#ffffff"/>
  <!-- 눈 -->
  <ellipse cx="86" cy="74" rx="6.5" ry="9" fill="#1f2937"/>
  <ellipse cx="114" cy="74" rx="6.5" ry="9" fill="#1f2937"/>
  <circle cx="88.3" cy="70" r="2.2" fill="#ffffff"/>
  <circle cx="116.3" cy="70" r="2.2" fill="#ffffff"/>
  <!-- 볼 -->
  <circle cx="74" cy="86" r="6" fill="#fca5a5" opacity="0.8"/>
  <circle cx="126" cy="86" r="6" fill="#fca5a5" opacity="0.8"/>
  <!-- 미소 -->
  <path d="M91 87 q9 9 18 0" stroke="#1f2937" stroke-width="3" fill="none" stroke-linecap="round"/>
</svg>
